<?xml version="1.0" standalone="no"?>
<!DOCTYPE svg PUBLIC "-//W3C//DTD SVG 20010904//EN"
 "http://www.w3.org/TR/2001/REC-SVG-20010904/DTD/svg10.dtd">
<svg version="1.0" xmlns="http://www.w3.org/2000/svg"
 width="1000.000000pt" height="1000.000000pt" viewBox="0 0 1000.000000 1000.000000"
 preserveAspectRatio="xMidYMid meet">
<metadata>
Created by potrace 1.11, written by Peter Selinger 2001-2013
</metadata>
<g transform="translate(0.000000,1000.000000) scale(0.100000,-0.100000)"
fill="#000000" stroke="none">
<path d="M0 5000 l0 -5000 5000 0 5000 0 0 5000 0 5000 -5000 0 -5000 0 0
-5000z m4488 3992 c2 -7 -3 -12 -12 -12 -9 0 -16 7 -16 16 0 17 22 14 28 -4z
m-2702 -47 c16 -25 16 -27 -6 -50 -24 -26 -39 -25 -58 5 -10 17 -9 25 4 45 21
32 39 32 60 0z m1985 -88 c-1 -12 -15 -9 -19 4 -3 6 1 10 8 8 6 -3 11 -8 11
-12z m-491 -12 c0 -8 -4 -15 -10 -15 -5 0 -10 7 -10 15 0 8 5 15 10 15 6 0 10
-7 10 -15z m-2770 -10 c0 -8 -7 -15 -15 -15 -8 0 -15 7 -15 15 0 8 7 15 15 15
8 0 15 -7 15 -15z m5210 -90 c0 -8 -4 -15 -10 -15 -5 0 -10 7 -10 15 0 8 5 15
10 15 6 0 10 -7 10 -15z m-680 -30 c0 -8 -4 -15 -9 -15 -13 0 -22 16 -14 24
11 11 23 6 23 -9z m-4650 -51 c0 -14 -21 -19 -33 -7 -9 9 13 34 24 27 5 -3 9
-12 9 -20z m2846 -52 c-17 -17 -36 -8 -36 18 0 25 22 32 38 12 10 -13 10 -19
-2 -30z m-149 -174 c-3 -8 -6 -5 -6 6 -1 11 2 17 5 13 3 -3 4 -12 1 -19z
m-1671 -39 c10 -17 -13 -36 -27 -22 -12 12 -4 33 11 33 5 0 12 -5 16 -11z
m2314 -89 c0 -5 -4 -10 -10 -10 -5 0 -10 5 -10 10 0 6 5 10 10 10 6 0 10 -4
10 -10z m-3320 -44 c0 -11 -19 -15 -25 -6 -3 5 1 10 9 10 9 0 16 -2 16 -4z
m1355 -5 c3 -5 1 -12 -5 -16 -5 -3 -10 1 -10 9 0 18 6 21 15 7z m-180 -127 c0
-10 -8 -20 -17 -22 -18 -3 -26 27 -11 42 12 11 28 0 28 -20z m5630 6 c3 -5 1
-10 -4 -10 -6 0 -11 5 -11 10 0 6 2 10 4 10 3 0 8 -4 11 -10z m-3837 -51 c-2
-6 -8 -10 -13 -10 -5 0 -11 4 -13 10 -2 6 4 11 13 11 9 0 15 -5 13 -11z m4020
-47 c2 -7 -3 -12 -12 -12 -9 0 -16 7 -16 16 0 17 22 14 28 -4z m-1586 -104 c7
-19 -2 -38 -17 -38 -21 0 -28 19 -15 35 15 18 26 19 32 3z m-4142 -38 c0 -5
-4 -10 -10 -10 -5 0 -10 5 -10 10 0 6 5 10 10 10 6 0 10 -4 10 -10z m1600 -45
c0 -8 -7 -15 -15 -15 -16 0 -20 12 -8 23 11 12 23 8 23 -8z m-1510 -10 c0 -8
-7 -15 -15 -15 -8 0 -15 7 -15 15 0 8 7 15 15 15 8 0 15 -7 15 -15z m3880 -5
c0 -5 -4 -10 -10 -10 -5 0 -10 5 -10 10 0 6 5 10 10 10 6 0 10 -4 10 -10z
m2005 -20 c0 -16 -6 -26 -18 -28 -19 -4 -32 20 -23 44 9 25 41 13 41 -16z m93
-53 c2 -10 -3 -17 -12 -17 -10 0 -16 9 -16 21 0 24 23 21 28 -4z m-4308 -17
c0 -13 -7 -20 -20 -20 -13 0 -20 7 -20 20 0 13 7 20 20 20 13 0 20 -7 20 -20z
m-1655 -176 c0 -10 -8 -20 -17 -22 -18 -3 -26 27 -11 42 12 11 28 0 28 -20z
m6255 -4 c0 -11 -7 -20 -15 -20 -8 0 -15 9 -15 20 0 11 7 20 15 20 8 0 15 -9
15 -20z m-6610 -19 c0 -10 -7 -22 -16 -25 -23 -9 -24 -8 -24 19 0 18 5 25 20
25 13 0 20 -7 20 -19z m128 -98 c-2 -10 -10 -18 -18 -18 -8 0 -16 8 -18 18 -2
12 3 17 18 17 15 0 20 -5 18 -17z m-458 -11 c0 -13 -12 -22 -22 -16 -10 6 -1
24 13 24 5 0 9 -4 9 -8z m1960 -83 c0 -5 -7 -9 -15 -9 -15 0 -20 12 -9 23 8 8
24 -1 24 -14z m-1910 -39 c0 -5 -7 -10 -15 -10 -8 0 -15 5 -15 10 0 6 7 10 15
10 8 0 15 -4 15 -10z m5622 -15 c0 -5 -5 -11 -11 -13 -6 -2 -11 4 -11 13 0 9
5 15 11 13 6 -2 11 -8 11 -13z m-4117 -25 c-5 -8 -11 -8 -17 -2 -6 6 -7 16 -3
22 5 8 11 8 17 2 6 -6 7 -16 3 -22z m6825 -148 c0 -13 -12 -22 -22 -16 -10 6
-1 24 13 24 5 0 9 -4 9 -8z m-5820 -106 c0 -8 -5 -18 -11 -22 -14 -8 -33 11
-25 25 10 16 36 13 36 -3z m180 -60 c0 -8 -4 -17 -8 -20 -13 -8 -35 11 -28 23
10 16 36 14 36 -3z m-3462 -23 c-5 -25 -28 -28 -28 -4 0 12 6 21 16 21 9 0 14
-7 12 -17z m6572 -6 c0 -8 -3 -17 -7 -20 -9 -9 -34 13 -27 24 8 14 34 11 34
-4z m-6252 -9 c-6 -18 -28 -21 -28 -4 0 9 7 16 16 16 9 0 14 -5 12 -12z m3315
-4 c9 -10 -4 -34 -19 -34 -8 0 -14 9 -14 20 0 19 19 27 33 14z m-2298 -74 c11
-18 -6 -50 -26 -50 -22 0 -34 22 -25 45 6 17 42 20 51 5z m3655 -15 c0 -8 -7
-15 -15 -15 -8 0 -15 7 -15 15 0 8 7 15 15 15 8 0 15 -7 15 -15z m3532 -40 c0
-5 -5 -11 -11 -13 -6 -2 -11 4 -11 13 0 9 5 15 11 13 6 -2 11 -8 11 -13z
m-264 -23 c2 -7 -3 -12 -12 -12 -9 0 -16 7 -16 16 0 17 22 14 28 -4z m-7563
-78 c0 -10 -8 -20 -18 -22 -22 -4 -35 27 -16 39 20 12 34 5 34 -17z m2780 -4
c-5 -8 -11 -8 -17 -2 -6 6 -7 16 -3 22 5 8 11 8 17 2 6 -6 7 -16 3 -22z
m-3545 -10 c0 -11 -4 -20 -9 -20 -14 0 -23 18 -16 30 10 17 25 11 25 -10z
m810 -54 c0 -3 -4 -8 -10 -11 -5 -3 -10 -1 -10 4 0 6 5 11 10 11 6 0 10 -2 10
-4z m1305 -45 c484 -108 837 -385 1040 -816 116 -244 165 -471 165 -756 -1
-279 -48 -505 -156 -737 -207 -446 -570 -731 -1061 -834 -103 -21 -135 -22
-635 -26 l-528 -3 0 1601 0 1601 538 -4 c511 -3 542 -5 637 -26z m3991 -49
l-1 -79 -410 -6 c-225 -4 -638 -7 -917 -7 l-508 0 0 -415 0 -415 597 -2 596
-3 2 -82 1 -82 -111 -3 c-60 -2 -368 -2 -682 0 l-573 2 0 585 0 585 1003 0
1003 0 0 -78z m962 -404 c279 -252 510 -458 514 -458 7 0 488 432 894 801
l151 138 57 -58 58 -58 -449 -409 c-246 -225 -506 -462 -577 -527 -71 -65
-132 -117 -137 -115 -11 4 -1149 1038 -1149 1045 0 2 23 31 51 64 42 48 55 57
66 47 8 -6 242 -218 521 -470z m130 369 c4 -20 -25 -34 -39 -20 -14 14 1 45
20 41 9 -2 17 -11 19 -21z m-3315 -52 c-6 -17 -25 -15 -31 3 -2 7 5 12 17 12
14 0 19 -5 14 -15z m-3699 -111 c17 -45 -24 -70 -48 -31 -9 15 -7 21 8 33 25
18 32 18 40 -2z m3004 -26 c-4 -29 -38 -38 -38 -10 0 22 8 32 27 32 9 0 13 -8
11 -22z m-3078 -33 c0 -8 -4 -15 -9 -15 -13 0 -22 16 -14 24 11 11 23 6 23 -9z
m4345 -5 c-3 -5 -13 -10 -21 -10 -8 0 -14 5 -14 10 0 6 9 10 21 10 11 0 17 -4
14 -10z m1555 -80 c0 -11 -7 -20 -15 -20 -8 0 -15 9 -15 20 0 11 7 20 15 20 8
0 15 -9 15 -20z m-1572 -1 c-2 -6 -8 -10 -13 -10 -5 0 -11 4 -13 10 -2 6 4 11
13 11 9 0 15 -5 13 -11z m972 -124 c0 -8 -7 -15 -15 -15 -8 0 -15 7 -15 15 0
8 7 15 15 15 8 0 15 -7 15 -15z m-2342 -31 c-4 -25 -36 -30 -45 -8 -4 11 1 22
12 30 22 16 39 5 33 -22z m-2353 -24 c3 -5 1 -10 -4 -10 -6 0 -11 5 -11 10 0
6 2 10 4 10 3 0 8 -4 11 -10z m2978 -6 c9 -10 -4 -34 -19 -34 -8 0 -14 9 -14
20 0 19 19 27 33 14z m5847 -24 c0 -5 -4 -10 -10 -10 -5 0 -10 5 -10 10 0 6 5
10 10 10 6 0 10 -4 10 -10z m-9557 -112 c6 -18 -11 -48 -28 -48 -19 0 -27 16
-20 40 7 22 41 27 48 8z m25 -76 c3 -16 -2 -22 -17 -22 -26 0 -36 17 -20 36
16 19 33 13 37 -14z m9200 -69 c-4 -22 -22 -20 -26 1 -2 10 3 16 13 16 10 0
15 -7 13 -17z m-9119 -27 c8 -10 8 -16 -3 -25 -10 -9 -16 -8 -26 3 -12 15 -6
36 9 36 5 0 14 -6 20 -14z m3241 -102 c0 -9 -5 -14 -12 -12 -18 6 -21 28 -4
28 9 0 16 -7 16 -16z m4790 -134 c0 -5 -4 -10 -10 -10 -5 0 -10 5 -10 10 0 6
5 10 10 10 6 0 10 -4 10 -10z m1100 -65 c0 -7 -6 -18 -14 -24 -12 -10 -17 -8
-25 7 -7 13 -7 22 1 30 13 13 38 5 38 -13z m-9162 8 c-10 -2 -28 -2 -40 0 -13
2 -5 4 17 4 22 1 32 -1 23 -4z m-10 -50 c-10 -2 -26 -2 -35 0 -10 3 -2 5 17 5
19 0 27 -2 18 -5z m7112 -58 c0 -8 -4 -15 -10 -15 -5 0 -10 7 -10 15 0 8 5 15
10 15 6 0 10 -7 10 -15z m1230 -60 c0 -8 -4 -15 -9 -15 -13 0 -22 16 -14 24
11 11 23 6 23 -9z m528 -17 c-6 -18 -28 -21 -28 -4 0 9 7 16 16 16 9 0 14 -5
12 -12z m-1058 -208 c0 -5 -4 -10 -10 -10 -5 0 -10 5 -10 10 0 6 5 10 10 10 6
0 10 -4 10 -10z m1300 -10 c0 -5 -4 -10 -10 -10 -5 0 -10 5 -10 10 0 6 5 10
10 10 6 0 10 -4 10 -10z m-250 -56 c0 -8 -4 -12 -10 -9 -5 3 -10 10 -10 16 0
5 5 9 10 9 6 0 10 -7 10 -16z m-5550 -89 c0 -8 -4 -15 -10 -15 -5 0 -10 7 -10
15 0 8 5 15 10 15 6 0 10 -7 10 -15z m-3274 -216 c10 -17 -23 -46 -37 -32 -7
7 -9 19 -6 27 7 18 33 21 43 5z m8334 -9 c0 -5 -4 -10 -10 -10 -5 0 -10 5 -10
10 0 6 5 10 10 10 6 0 10 -4 10 -10z m-2959 -57 c1 -10 2 -47 3 -83 l1 -65
-597 -3 -598 -2 0 -420 0 -419 911 -1 c501 0 915 -3 920 -6 5 -3 9 -41 9 -85
l0 -79 -1005 0 -1005 0 0 590 0 590 680 0 c641 0 680 -1 681 -17z m2191 -51
c35 -32 294 -269 576 -526 l514 -469 -58 -58 -57 -57 -306 276 c-168 152 -402
363 -519 469 -117 106 -216 193 -220 193 -4 0 -241 -212 -527 -471 l-520 -470
-52 58 c-29 32 -52 61 -53 65 0 9 1142 1047 1152 1048 4 0 36 -26 70 -58z
m-992 -137 c0 -8 -4 -15 -10 -15 -5 0 -10 7 -10 15 0 8 5 15 10 15 6 0 10 -7
10 -15z m2756 -6 c10 -17 -13 -36 -27 -22 -12 12 -4 33 11 33 5 0 12 -5 16
-11z m-9491 -120 c0 -7 -8 -15 -17 -17 -18 -3 -25 18 -11 32 10 10 28 1 28
-15z m865 -9 c0 -5 -7 -10 -15 -10 -8 0 -15 5 -15 10 0 6 7 10 15 10 8 0 15
-4 15 -10z m4270 -75 c0 -8 -4 -15 -10 -15 -5 0 -10 7 -10 15 0 8 5 15 10 15
6 0 10 -7 10 -15z m1435 -105 c11 -18 -6 -50 -26 -50 -22 0 -34 22 -25 45 6
17 42 20 51 5z m-5901 -23 c13 -20 -2 -50 -27 -55 -26 -5 -39 31 -21 57 17 24
32 24 48 -2z m5196 -42 c0 -8 -7 -15 -15 -15 -16 0 -20 12 -8 23 11 12 23 8
23 -8z m2798 -22 c-4 -22 -22 -20 -26 1 -2 10 3 16 13 16 10 0 15 -7 13 -17z
m-4198 -112 c0 -26 -21 -43 -37 -30 -16 14 -17 31 -2 46 15 15 39 5 39 -16z
m-4440 -21 c0 -19 -11 -26 -23 -14 -8 8 3 34 14 34 5 0 9 -9 9 -20z m8850 10
c0 -5 -4 -10 -10 -10 -5 0 -10 5 -10 10 0 6 5 10 10 10 6 0 10 -4 10 -10z
m-1330 -130 c0 -5 -7 -10 -16 -10 -8 0 -12 5 -9 10 3 6 10 10 16 10 5 0 9 -4
9 -10z m-3983 -56 c8 -21 -13 -42 -28 -27 -13 13 -5 43 11 43 6 0 13 -7 17
-16z m-547 -24 c0 -5 -5 -10 -11 -10 -5 0 -7 5 -4 10 3 6 8 10 11 10 2 0 4 -4
4 -10z m485 0 c3 -5 1 -10 -4 -10 -6 0 -11 5 -11 10 0 6 2 10 4 10 3 0 8 -4
11 -10z m-3625 -10 c0 -5 -7 -10 -16 -10 -8 0 -12 5 -9 10 3 6 10 10 16 10 5
0 9 -4 9 -10z m5390 0 c0 -5 -2 -10 -4 -10 -3 0 -8 5 -11 10 -3 6 -1 10 4 10
6 0 11 -4 11 -10z m861 -23 c-13 -13 -26 -3 -16 12 3 6 11 8 17 5 6 -4 6 -10
-1 -17z m-3431 -331 c0 -31 -22 -50 -38 -34 -13 13 -16 41 -5 51 3 4 15 7 25
7 12 0 18 -7 18 -24z m5088 -113 c-5 -26 -38 -29 -38 -4 0 15 6 21 21 21 14 0
19 -5 17 -17z m-868 -27 c0 -3 -4 -8 -10 -11 -5 -3 -10 -1 -10 4 0 6 5 11 10
11 6 0 10 -2 10 -4z m-3470 -26 c0 -5 -4 -10 -10 -10 -5 0 -10 5 -10 10 0 6 5
10 10 10 6 0 10 -4 10 -10z m5870 -101 c0 -5 -7 -9 -15 -9 -15 0 -20 12 -9 23
8 8 24 -1 24 -14z m-5595 -10 c0 -7 -8 -15 -17 -17 -18 -3 -25 18 -11 32 10
10 28 1 28 -15z m5015 -159 c0 -5 -4 -10 -10 -10 -5 0 -10 5 -10 10 0 6 5 10
10 10 6 0 10 -4 10 -10z m-6850 -15 c0 -8 -7 -15 -15 -15 -8 0 -15 7 -15 15 0
8 7 15 15 15 8 0 15 -7 15 -15z m880 -110 c0 -8 -4 -15 -10 -15 -5 0 -10 7
-10 15 0 8 5 15 10 15 6 0 10 -7 10 -15z m1680 -70 c0 -8 -7 -15 -15 -15 -8 0
-15 7 -15 15 0 8 7 15 15 15 8 0 15 -7 15 -15z m-3226 -21 c7 -19 -1 -34 -19
-34 -21 0 -28 19 -15 35 16 19 26 19 34 -1z m2144 -30 c3 -23 -21 -49 -38 -39
-11 7 -14 48 -3 59 13 13 38 1 41 -20z m4867 -34 c8 -13 -14 -42 -26 -34 -5 3
-9 14 -9 25 0 20 24 26 35 9z m-7067 -32 c-6 -18 -28 -21 -28 -4 0 9 7 16 16
16 9 0 14 -5 12 -12z m587 -17 c9 -29 -5 -52 -29 -49 -24 4 -33 33 -16 53 17
21 37 19 45 -4z m1405 -201 c0 -5 -5 -10 -11 -10 -5 0 -7 5 -4 10 3 6 8 10 11
10 2 0 4 -4 4 -10z m3270 -30 c0 -5 -4 -10 -10 -10 -5 0 -10 5 -10 10 0 6 5
10 10 10 6 0 10 -4 10 -10z m-4260 -40 c0 -5 -4 -10 -10 -10 -5 0 -10 5 -10
10 0 6 5 10 10 10 6 0 10 -4 10 -10z m4770 6 c0 -3 -4 -8 -10 -11 -5 -3 -10
-1 -10 4 0 6 5 11 10 11 6 0 10 -2 10 -4z m-601 -75 c13 -24 -9 -57 -33 -48
-19 7 -21 38 -4 55 17 17 26 15 37 -7z m926 -21 c0 -7 -6 -15 -12 -17 -8 -3
-13 4 -13 17 0 13 5 20 13 18 6 -3 12 -11 12 -18z m-7371 -99 c3 -5 -1 -14 -8
-20 -16 -13 -32 2 -21 19 8 12 22 13 29 1z m5516 -105 c0 -8 -5 -18 -11 -22
-14 -8 -33 11 -25 25 10 16 36 13 36 -3z m-2799 -19 c-13 -13 -26 -3 -16 12 3
6 11 8 17 5 6 -4 6 -10 -1 -17z m-1571 -128 c0 -5 -4 -9 -10 -9 -5 0 -10 7
-10 16 0 8 5 12 10 9 6 -3 10 -10 10 -16z m946 0 c10 -17 -13 -36 -27 -22 -12
12 -4 33 11 33 5 0 12 -5 16 -11z m-1646 -29 c0 -11 -7 -20 -15 -20 -8 0 -15
9 -15 20 0 11 7 20 15 20 8 0 15 -9 15 -20z m2665 -150 c10 -16 -16 -43 -28
-31 -11 11 -2 41 12 41 5 0 13 -5 16 -10z m-485 -10 c0 -5 -4 -10 -10 -10 -5
0 -10 5 -10 10 0 6 5 10 10 10 6 0 10 -4 10 -10z m2150 -60 c0 -5 -4 -10 -10
-10 -5 0 -10 5 -10 10 0 6 5 10 10 10 6 0 10 -4 10 -10z m78 -21 c-2 -6 -8
-10 -13 -10 -5 0 -11 4 -13 10 -2 6 4 11 13 11 9 0 15 -5 13 -11z m1882 -163
c0 -8 -5 -18 -11 -22 -14 -8 -33 11 -25 25 10 16 36 13 36 -3z m-3230 -16 c0
-5 -2 -10 -4 -10 -3 0 -8 5 -11 10 -3 6 -1 10 4 10 6 0 11 -4 11 -10z"/>
<path d="M1410 5011 l0 -1431 383 0 c210 0 421 5 467 10 494 61 874 351 1064
812 158 384 153 866 -15 1249 -149 342 -427 603 -759 714 -194 65 -226 68
-702 72 l-438 4 0 -1430z m408 986 c4 -21 -27 -35 -38 -17 -12 19 0 42 19 38
9 -2 17 -11 19 -21z m877 -196 c7 -12 -12 -24 -25 -16 -11 7 -4 25 10 25 5 0
11 -4 15 -9z m-655 -31 c0 -11 -6 -20 -14 -20 -18 0 -29 16 -21 30 11 18 35
11 35 -10z m-476 -119 c9 -14 -4 -41 -19 -41 -18 0 -28 17 -21 35 6 17 32 20
40 6z m486 -131 c0 -5 -4 -10 -10 -10 -5 0 -10 5 -10 10 0 6 5 10 10 10 6 0
10 -4 10 -10z m300 -49 c0 -11 -5 -23 -11 -27 -15 -9 -33 12 -26 30 9 23 37
20 37 -3z m-412 -43 c-2 -13 -10 -23 -18 -23 -8 0 -16 10 -18 23 -3 17 2 22
18 22 16 0 21 -5 18 -22z m192 -72 c0 -15 -24 -28 -34 -19 -13 14 -5 33 14 33
11 0 20 -6 20 -14z m78 -103 c-2 -10 -10 -18 -18 -18 -8 0 -16 8 -18 18 -2 12
3 17 18 17 15 0 20 -5 18 -17z m842 -173 c0 -5 -5 -10 -11 -10 -5 0 -7 5 -4
10 3 6 8 10 11 10 2 0 4 -4 4 -10z m-1590 -634 c0 -3 -4 -8 -10 -11 -5 -3 -10
-1 -10 4 0 6 5 11 10 11 6 0 10 -2 10 -4z m1618 -118 c-5 -34 -38 -37 -38 -4
0 20 5 26 21 26 15 0 20 -5 17 -22z m-958 -154 c0 -8 -7 -14 -15 -14 -15 0
-21 21 -9 33 10 9 24 -2 24 -19z m-130 -165 c0 -12 -7 -19 -20 -19 -22 0 -29
35 -7 43 18 6 27 -2 27 -24z"/>
</g>
</svg>
